<svg width="40" height="40" fill="none" xmlns="http://www.w3.org/2000/svg"><g clip-path="url(#a)" fill="#D7B399"><path d="M9.339 14.723 4.072 19.99l5.267 5.267 5.266-5.267-5.266-5.267ZM19.994 4.085l-5.266 5.267 5.266 5.267 5.267-5.267-5.267-5.267ZM19.991 25.394l-5.266 5.266 5.266 5.267 5.267-5.267-5.267-5.266ZM30.647 14.727l-5.267 5.266 5.267 5.267 5.267-5.267-5.267-5.266Z"/><path d="m28.61 12.687-5.266 5.266 2.039 2.04 5.266-5.267-2.039-2.04ZM17.955 23.353l-5.267 5.267 2.04 2.039 5.266-5.267-2.04-2.039ZM25.259 9.353l-5.267 5.267 2.04 2.039 5.266-5.267-2.04-2.039ZM14.618 20.005 9.35 25.272l2.04 2.04 5.266-5.268-2.04-2.039ZM11.379 12.686l-2.04 2.04 5.267 5.266 2.04-2.039-5.267-5.267ZM14.727 9.35l-2.04 2.039 5.267 5.266 2.04-2.039-5.267-5.266ZM25.38 19.99l-2.04 2.04 5.267 5.266 2.04-2.039-5.267-5.267ZM22.046 23.342l-2.04 2.04 5.267 5.266 2.04-2.04-5.267-5.266ZM27.303 32.697l-2.033-2.033-5.27 5.27-5.27-5.27-2.033 2.033L20 40l7.303-7.303ZM9.336 14.73l-2.033-2.033L0 20l7.303 7.303 2.033-2.033L4.066 20l5.27-5.27ZM32.697 12.697l-2.033 2.033 5.27 5.27-5.27 5.27 2.033 2.033L40 20l-7.303-7.303ZM25.27 9.336l2.033-2.033L20 0l-7.303 7.303 2.033 2.033L20 4.066l5.27 5.27Z"/></g><defs><clipPath id="a"><path fill="#fff" d="M0 0h40v40H0z"/></clipPath></defs></svg>